<?xml version="1.0" standalone="no"?>
<!DOCTYPE svg PUBLIC "-//W3C//DTD SVG 20010904//EN"
 "http://www.w3.org/TR/2001/REC-SVG-20010904/DTD/svg10.dtd">
<svg version="1.0" xmlns="http://www.w3.org/2000/svg"
 width="839.000000pt" height="992.000000pt" viewBox="0 0 839.000000 992.000000"
 preserveAspectRatio="xMidYMid meet">

<g transform="translate(0.000000,992.000000) scale(0.100000,-0.100000)"
fill="#000000" stroke="none">
<path d="M0 4960 l0 -4960 835 0 835 0 0 42 c0 63 19 105 54 119 17 7 33 15
36 18 3 3 14 11 24 17 20 11 23 18 51 115 20 72 33 89 74 98 29 5 34 11 36 38
3 35 51 110 77 118 9 3 38 36 65 73 55 79 183 217 183 198 0 -12 14 -44 93
-206 50 -104 99 -170 125 -170 9 0 37 -17 61 -38 44 -38 44 -39 30 -70 -8 -18
-19 -32 -25 -32 -12 0 -13 -75 0 -87 5 -5 6 -3 2 4 -4 7 -3 13 2 13 10 0 12
-5 36 -88 14 -52 14 -53 -3 -38 -10 9 -31 42 -46 74 -17 34 -30 50 -32 41 -2
-9 8 -38 22 -65 21 -39 24 -56 19 -90 -3 -24 -1 -50 5 -63 12 -21 17 -21 312
-21 l301 0 -21 34 c-12 18 -21 45 -21 59 0 36 -18 43 -30 13 -12 -32 -26 -33
-34 -2 -3 14 -16 26 -30 30 -14 3 -35 20 -47 37 -16 23 -24 28 -30 17 -7 -10
-9 -9 -9 5 0 12 -8 17 -26 17 -21 0 -24 3 -19 20 6 18 3 20 -19 16 -14 -3 -30
-7 -35 -10 -5 -3 -11 1 -15 9 -9 24 -39 19 -31 -5 14 -43 -21 -17 -55 40 -22
39 -51 72 -81 92 -47 33 -87 89 -102 143 -5 16 -23 50 -41 75 -93 128 -151
260 -162 368 -7 65 15 203 47 297 28 81 45 386 30 528 -6 54 -11 146 -11 205
0 115 -14 288 -31 389 -14 77 -17 183 -7 189 14 9 37 -11 68 -59 32 -51 38
-71 18 -65 -7 3 -14 17 -16 31 -3 27 -16 35 -27 18 -6 -11 52 -81 67 -81 16 0
-3 91 -23 111 -11 11 -19 23 -19 29 0 14 27 1 34 -16 3 -8 10 -14 16 -14 16 0
6 48 -20 98 -12 24 -20 46 -16 49 3 3 8 -2 12 -11 10 -27 27 -19 20 10 -5 19
-3 25 6 22 14 -5 15 -10 17 -71 1 -28 10 -47 36 -75 37 -40 47 -28 20 24 -8
16 -15 37 -15 47 0 9 -4 17 -10 17 -5 0 -2 8 8 18 16 17 18 16 39 -24 31 -61
36 -174 8 -174 -14 0 -14 -3 -1 -28 13 -26 13 -29 -7 -41 -18 -12 -22 -11 -34
5 -7 10 -13 25 -13 33 0 9 -7 24 -14 34 -13 16 -14 13 -18 -29 -2 -35 0 -48
12 -52 20 -8 49 -44 50 -61 0 -17 79 -90 96 -91 7 0 19 -11 28 -24 22 -34 65
-76 77 -76 6 0 9 -15 7 -32 -2 -24 1 -33 12 -33 10 0 16 13 18 42 3 34 7 43
22 43 10 0 20 5 22 11 2 6 19 -13 37 -41 22 -34 30 -55 24 -61 -7 -7 -18 5
-32 35 -24 53 -46 53 -55 1 -4 -18 -12 -36 -19 -38 -14 -6 43 -62 72 -72 10
-3 22 -12 25 -20 6 -15 36 -21 36 -7 0 4 -9 15 -20 25 -11 9 -20 27 -20 38 0
23 10 12 75 -83 16 -25 30 -35 40 -32 11 5 15 -1 15 -20 0 -18 4 -24 15 -20 8
4 15 1 15 -4 0 -6 13 -19 29 -28 16 -10 34 -27 40 -38 9 -21 10 -21 11 -1 1
11 2 28 1 38 -4 31 16 18 32 -23 9 -23 22 -40 31 -40 13 0 14 5 6 26 -8 20 -7
25 2 22 7 -3 14 -18 16 -36 3 -32 32 -68 32 -41 1 8 16 -4 35 -25 19 -22 37
-37 39 -35 2 2 -6 25 -19 50 l-22 46 26 -7 c14 -4 25 -13 23 -20 -1 -7 5 -18
15 -25 10 -7 15 -17 11 -21 -4 -4 -3 -13 3 -21 10 -11 14 -10 24 4 8 10 15 16
17 13 2 -3 16 -24 31 -47 33 -52 52 -56 43 -10 -7 41 8 71 19 36 4 -13 19 -39
33 -57 18 -24 30 -31 45 -26 11 4 23 1 28 -7 6 -10 13 -10 34 -1 24 11 26 11
20 -8 -4 -11 -2 -20 4 -20 6 0 11 5 11 10 0 16 37 12 44 -5 6 -17 33 -20 38
-4 2 7 23 1 53 -15 27 -15 55 -24 63 -21 9 3 12 0 9 -8 -3 -7 4 -19 14 -26 11
-6 17 -16 14 -21 -3 -5 -1 -19 5 -30 8 -16 8 -22 -4 -26 -17 -7 -29 -44 -12
-41 6 1 11 -7 11 -18 0 -15 8 -21 33 -23 25 -3 32 -8 32 -24 0 -11 -7 -26 -16
-33 -15 -10 -12 -15 22 -36 l39 -24 -30 -5 c-49 -9 -14 -19 56 -16 47 2 72 -2
94 -16 37 -22 45 -22 45 -3 0 8 7 15 15 15 8 0 15 -4 15 -10 0 -15 56 -12 98
5 l37 16 -25 12 c-22 11 -25 11 -28 -5 -3 -14 -6 -15 -17 -5 -7 6 -11 16 -8
21 3 4 0 12 -7 16 -8 5 -9 13 -4 21 13 21 15 47 5 54 -5 3 -21 1 -36 -5 -38
-15 -47 -4 -26 33 12 21 25 32 40 31 11 0 21 3 21 7 0 10 54 26 115 35 28 4
59 13 71 21 12 7 29 11 38 7 12 -4 16 0 16 15 0 19 2 20 21 9 17 -11 22 -10
34 6 8 10 21 16 29 13 21 -8 66 15 66 34 0 13 9 15 49 11 30 -2 51 0 55 7 4 6
16 11 27 11 10 0 19 4 19 8 0 4 18 8 40 9 24 1 51 11 67 23 21 16 29 18 41 8
13 -11 15 -9 9 20 -4 21 -3 31 3 27 6 -3 10 -13 10 -21 0 -8 4 -14 9 -14 5 0
9 6 8 12 -1 41 3 49 23 43 12 -4 20 -2 20 5 0 7 8 9 20 5 14 -4 20 -2 20 9 0
15 50 56 68 56 25 0 192 117 192 134 0 3 -28 -11 -61 -30 -66 -37 -186 -94
-198 -94 -4 0 -7 16 -7 36 0 28 3 34 17 31 33 -9 70 34 38 45 -6 2 -8 14 -4
31 8 31 79 92 96 81 8 -4 9 0 4 15 -10 33 29 27 45 -6 l13 -28 7 31 c9 40 18
54 36 54 19 0 18 16 -2 24 -10 4 -25 -1 -35 -10 -16 -14 -19 -15 -19 -3 0 17
60 79 76 79 5 0 16 16 23 36 7 19 15 33 18 30 7 -7 43 38 43 54 0 25 42 82 53
71 13 -13 56 15 67 43 7 20 8 20 15 3 4 -10 3 -28 -3 -40 -22 -45 -21 -228 1
-412 27 -219 45 -314 88 -462 22 -72 39 -142 39 -155 0 -12 7 -48 15 -78 23
-82 21 -176 -4 -232 -11 -27 -25 -48 -31 -48 -6 0 -8 -10 -4 -25 4 -18 -1 -33
-20 -56 -14 -17 -26 -39 -26 -50 0 -10 -4 -19 -9 -19 -5 0 -18 -16 -30 -35
-11 -19 -27 -35 -35 -35 -9 0 -16 -11 -18 -27 -2 -20 -9 -28 -23 -29 -47 -2
-80 -25 -108 -75 -26 -48 -29 -50 -42 -33 -8 11 -14 14 -15 7 0 -7 -7 -13 -15
-13 -20 0 -19 -20 3 -36 16 -12 16 -14 -6 -36 -17 -17 -21 -19 -16 -5 5 15 0
17 -46 17 -34 0 -49 -4 -44 -11 3 -6 15 -9 25 -6 23 6 26 -15 5 -32 -11 -9
-20 -9 -35 -2 -30 16 -31 15 -31 -34 0 -33 -4 -45 -14 -45 -8 0 -18 5 -21 10
-3 6 -15 10 -26 10 -18 0 -19 -2 -5 -15 8 -8 19 -15 25 -15 6 0 11 -7 11 -15
0 -8 -7 -15 -15 -15 -9 0 -12 -6 -8 -15 3 -9 -2 -22 -12 -29 -10 -7 -15 -18
-11 -25 4 -7 -3 -15 -19 -21 -31 -12 -28 -18 25 -60 l40 -32 -2 34 c-3 33 -3
33 36 31 40 -3 54 -9 44 -19 -4 -3 -15 -1 -26 5 -14 8 -24 7 -38 -4 -19 -14
-18 -14 1 -16 11 -1 28 -1 38 -1 17 2 17 1 0 -25 -13 -19 -14 -28 -5 -31 6 -2
12 -10 12 -17 0 -7 7 -15 15 -19 12 -4 9 -12 -16 -36 -20 -18 -26 -30 -17 -30
7 0 20 6 27 13 11 9 14 9 18 0 6 -18 174 -18 192 0 11 9 14 9 18 0 4 -10 48
-13 178 -13 199 0 196 -2 221 88 8 31 21 77 29 102 7 25 16 121 19 215 5 141
9 174 24 194 25 34 35 30 50 -21 19 -59 62 -148 72 -148 4 0 11 -10 14 -22 8
-29 52 -79 72 -82 14 -2 25 -18 62 -91 8 -16 26 -43 39 -58 12 -16 23 -34 23
-41 0 -7 10 -21 21 -32 12 -10 35 -38 51 -61 l29 -43 998 0 999 0 5 103 c3 56
5 2288 6 4960 l1 4857 -4190 0 -4190 0 0 -4960z m5108 4748 c-5 -14 -86 -57
-107 -58 -21 0 -5 14 49 44 51 28 63 31 58 14z m252 2 c0 -5 -3 -9 -7 -8 -5 1
-18 -2 -31 -6 -28 -9 -43 1 -22 14 20 13 60 13 60 0z m-405 -20 c-3 -5 -14
-10 -23 -10 -15 0 -15 2 -2 10 20 13 33 13 25 0z m235 0 c-20 -13 -40 -13 -40
0 0 6 12 10 28 10 21 0 24 -2 12 -10z m290 -60 c0 -5 -4 -10 -10 -10 -5 0 -10
5 -10 10 0 6 5 10 10 10 6 0 10 -4 10 -10z m40 -50 c0 -5 -7 -10 -15 -10 -8 0
-15 5 -15 10 0 6 7 10 15 10 8 0 15 -4 15 -10z m-2715 -1061 c-31 -47 -35 -50
-35 -27 0 25 55 97 66 86 2 -3 -11 -29 -31 -59z m1322 -315 c31 -2 62 -9 70
-16 10 -8 17 -7 28 8 13 17 14 18 15 2 0 -22 13 -23 30 -3 7 8 16 15 20 15 13
0 18 -38 7 -49 -8 -8 -6 -11 5 -11 9 0 19 6 21 13 3 6 6 2 6 -10 1 -30 21 -40
28 -14 6 23 19 28 26 9 4 -10 8 -10 15 1 8 11 14 11 33 -3 13 -9 31 -16 40
-16 10 0 19 -6 22 -12 3 -10 9 -10 26 0 18 10 21 10 21 -3 0 -17 16 -20 25 -5
9 15 42 12 49 -5 3 -8 12 -12 21 -9 8 4 15 1 15 -6 0 -9 13 -11 44 -8 25 3 49
1 55 -5 10 -10 31 -14 77 -16 11 -1 30 -10 42 -21 12 -11 24 -20 27 -20 3 0 4
-3 3 -7 -4 -12 -38 -14 -38 -3 0 6 -5 10 -11 10 -5 0 -7 -4 -4 -10 3 -5 1 -10
-4 -10 -22 0 -10 -18 12 -18 12 -1 33 -2 47 -4 21 -2 25 1 25 21 0 14 6 26 13
29 6 2 12 -3 12 -12 0 -21 21 -31 31 -15 6 11 13 8 33 -11 15 -13 26 -20 26
-16 0 5 7 3 15 -4 8 -6 23 -9 34 -5 14 4 21 0 26 -15 4 -14 14 -21 28 -19 43
3 53 -1 54 -23 1 -12 9 -28 18 -37 13 -13 18 -14 37 -2 19 12 23 11 35 -5 7
-10 13 -24 13 -32 0 -7 4 -11 10 -7 5 3 7 12 3 20 -6 17 22 21 32 5 3 -5 1
-10 -5 -10 -6 0 -8 -4 -5 -10 3 -5 19 -10 34 -10 16 0 45 -11 65 -25 20 -13
42 -22 50 -19 7 3 30 -2 51 -10 42 -18 68 -21 45 -6 -10 7 -11 10 -2 10 7 0
17 -11 22 -25 5 -14 18 -28 27 -32 10 -4 23 -13 29 -21 7 -9 16 -12 24 -7 8 5
11 4 7 -2 -3 -5 7 -21 24 -34 17 -13 42 -37 57 -53 15 -16 51 -54 81 -84 37
-38 49 -57 41 -62 -17 -10 -3 -31 15 -23 8 3 15 0 15 -5 0 -6 5 -23 12 -39 6
-15 10 -34 9 -41 -1 -8 4 -23 12 -35 8 -12 14 -40 14 -62 0 -22 10 -60 22 -85
13 -26 17 -46 11 -50 -10 -6 -7 -19 26 -113 12 -37 12 -38 -8 -31 -21 6 -21 6
1 -25 12 -17 21 -36 20 -43 -4 -20 21 -130 36 -159 8 -14 19 -57 25 -95 6 -38
17 -78 24 -89 19 -30 39 -146 39 -239 1 -44 0 -169 -1 -276 -2 -203 11 -491
29 -620 5 -41 10 -93 9 -115 -1 -63 23 -237 31 -224 4 7 5 17 3 24 -7 18 26
87 53 112 27 26 85 31 127 12 25 -12 65 -74 54 -85 -4 -3 -17 1 -30 10 -29 21
-40 20 -66 -4 -19 -18 -20 -24 -11 -42 8 -15 10 -53 6 -115 -6 -89 -18 -129
-44 -146 -12 -8 -26 -62 -27 -106 -1 -39 -24 -36 -42 6 -11 25 -17 74 -19 146
-2 60 -5 111 -8 113 -2 2 -8 -62 -12 -143 -12 -218 -28 -397 -46 -497 -4 -28
-15 -94 -24 -147 -8 -53 -22 -116 -30 -139 -8 -23 -15 -51 -15 -61 0 -11 -3
-18 -7 -18 -23 4 -31 -5 -37 -40 -3 -23 -1 -51 6 -65 8 -18 8 -32 1 -48 -11
-23 -11 -23 -19 7 l-7 30 -17 -50 c-17 -52 -40 -72 -40 -35 0 32 -23 19 -34
-18 -5 -18 -13 -32 -17 -32 -5 0 -9 -9 -9 -20 0 -13 -10 -24 -25 -30 -20 -8
-24 -15 -20 -33 5 -18 0 -26 -19 -37 -14 -7 -26 -19 -26 -25 0 -7 -7 -19 -16
-26 -11 -9 -14 -23 -11 -46 3 -18 2 -33 -4 -33 -5 0 -9 5 -9 10 0 21 -20 9
-21 -12 l-2 -23 -4 23 c-5 23 -28 40 -40 28 -3 -3 0 -13 8 -22 11 -13 11 -18
2 -21 -7 -3 -13 -20 -13 -38 0 -23 -7 -39 -20 -48 -26 -18 -35 -63 -18 -86 10
-13 10 -14 -1 -4 -11 9 -19 5 -37 -23 -28 -41 -31 -69 -7 -78 15 -6 15 -7 0
-19 -9 -6 -27 -32 -39 -57 -24 -48 -66 -71 -55 -31 7 29 -6 34 -26 10 -14 -16
-14 -19 -2 -19 16 0 20 -27 6 -49 -5 -7 -14 -10 -20 -7 -6 4 -11 2 -11 -3 0
-6 -9 -11 -20 -11 -10 0 -24 -8 -29 -17 -9 -16 -10 -14 -11 9 0 14 -6 29 -12
31 -10 4 -10 6 -1 6 6 1 15 -3 18 -9 13 -21 27 -9 21 18 -15 61 -28 83 -47 77
-12 -4 -19 -2 -19 7 0 18 15 40 26 39 14 -2 17 49 3 65 -8 10 -9 18 -2 25 11
11 6 56 -8 65 -16 10 -9 24 16 34 24 9 24 9 8 53 -15 41 -15 45 5 91 12 26 26
45 32 41 26 -16 6 53 -31 107 -39 58 -46 84 -15 59 9 -8 24 -10 38 -5 19 6 21
5 11 -8 -15 -17 -7 -28 18 -28 9 0 19 -5 21 -12 2 -6 10 -8 16 -4 8 5 10 19 6
42 -4 22 -2 34 5 34 6 0 11 7 11 15 0 8 -4 15 -10 15 -5 0 -10 -7 -10 -15 0
-8 -4 -15 -9 -15 -5 0 -9 16 -8 35 1 25 5 34 14 31 20 -8 15 12 -8 33 -72 66
-79 75 -69 85 14 14 12 26 -4 26 -24 0 -30 21 -7 27 24 6 25 11 7 36 -16 21
-26 22 -26 2 0 -29 -17 -18 -79 50 -13 14 -40 35 -60 45 -43 22 -71 53 -71 79
0 10 -9 26 -21 37 -18 16 -37 19 -130 19 -74 0 -109 4 -109 11 0 6 -10 19 -22
28 -15 10 -17 14 -5 10 11 -4 17 -1 17 9 0 13 -21 25 -55 32 -5 1 -17 5 -26 9
-10 4 -23 7 -30 5 -41 -5 -48 24 -9 36 26 8 14 45 -15 45 -12 0 -30 9 -40 19
-14 17 -16 31 -10 90 7 66 6 71 -19 95 -25 26 -49 31 -116 26 -75 -5 -172 -78
-222 -166 -16 -29 -35 -55 -43 -58 -8 -3 -15 -12 -15 -19 0 -8 -7 -20 -16 -27
-12 -11 -15 -11 -12 0 2 7 -3 15 -9 17 -7 3 -13 0 -13 -6 0 -6 -9 -11 -19 -11
-11 0 -23 -4 -26 -10 -3 -5 -1 -10 4 -10 6 0 11 -7 11 -15 0 -8 -4 -15 -10
-15 -5 0 -10 -8 -10 -17 0 -14 -2 -15 -9 -4 -6 9 -14 10 -27 3 -16 -8 -53 -10
-74 -3 -3 1 4 8 14 16 17 13 18 15 3 15 -24 0 -79 55 -77 77 1 10 2 39 1 65
-1 59 -35 101 -106 134 -59 28 -96 30 -156 9 -58 -21 -87 -50 -100 -99 -17
-68 -41 -106 -73 -114 l-29 -8 43 -19 43 -19 21 27 c28 35 46 34 85 -2 l32
-30 -20 -20 c-22 -22 -41 -27 -41 -11 0 6 5 10 10 10 6 0 10 7 10 17 0 14 -2
14 -20 -2 -16 -14 -23 -16 -32 -7 -15 15 -58 16 -58 2 0 -5 -4 -10 -9 -10 -6
0 -21 -10 -35 -23 -23 -21 -24 -25 -10 -39 10 -10 12 -18 6 -22 -6 -3 -18 1
-26 10 -15 15 -19 14 -50 -9 -29 -23 -35 -24 -47 -11 -8 8 -36 15 -62 16 -35
2 -51 -3 -69 -19 -13 -12 -36 -27 -52 -33 -24 -9 -32 -7 -47 6 -17 15 -23 15
-44 4 -14 -7 -25 -17 -25 -22 0 -5 -4 -6 -10 -3 -12 7 -62 -24 -55 -36 3 -4
-4 -13 -16 -20 -20 -10 -21 -9 -17 20 5 36 -4 39 -31 12 -13 -13 -16 -21 -8
-24 7 -2 9 -8 5 -12 -4 -4 -15 -2 -23 5 -14 11 -21 8 -53 -23 -20 -20 -50 -47
-67 -61 -23 -20 -27 -28 -16 -35 22 -14 4 -84 -36 -136 -25 -32 -33 -49 -26
-56 7 -7 21 -1 46 21 21 18 38 27 42 20 8 -13 -3 -50 -16 -50 -5 0 -30 -19
-55 -42 -34 -31 -48 -39 -53 -29 -6 8 -11 9 -15 3 -3 -6 -2 -12 4 -14 7 -2 7
-19 1 -50 -9 -52 -4 -98 11 -98 6 0 8 -14 5 -32 -4 -27 -1 -23 21 22 36 74 72
120 94 120 25 0 23 -16 -3 -23 -17 -5 -19 -9 -10 -26 12 -22 1 -34 -23 -25
-12 4 -16 0 -17 -17 -1 -13 -1 -28 0 -32 1 -4 -5 -15 -14 -23 -8 -9 -15 -28
-15 -42 0 -15 -4 -42 -9 -60 -12 -39 0 -41 28 -4 l20 27 1 -38 c0 -21 -7 -54
-15 -74 -19 -46 -19 -55 3 -51 17 3 18 8 21 56 0 12 6 22 12 22 6 0 8 -9 4
-20 -3 -11 -3 -20 2 -20 13 0 73 72 67 81 -3 5 -1 9 5 9 5 0 11 -5 13 -11 2
-7 16 0 33 16 17 15 45 34 63 41 17 8 32 19 32 24 0 6 6 10 13 10 7 0 27 15
44 34 29 30 37 33 79 30 28 -1 59 3 75 12 15 8 41 14 56 14 16 0 49 11 75 25
42 22 55 24 129 20 100 -6 219 -36 316 -81 42 -19 98 -36 135 -40 35 -4 76
-13 92 -19 19 -8 40 -10 59 -4 16 4 48 4 73 0 32 -6 49 -5 61 5 10 7 31 14 46
14 15 0 43 6 62 14 19 8 56 18 82 22 26 4 50 10 53 14 9 13 150 22 150 11 0
-7 7 -7 20 1 16 11 26 9 57 -7 21 -11 52 -30 69 -42 17 -13 33 -20 37 -17 3 3
16 -1 29 -10 12 -9 36 -16 53 -16 42 0 105 -61 86 -84 -11 -13 -8 -16 16 -22
31 -8 116 -91 107 -105 -3 -5 1 -18 10 -30 13 -18 12 -23 -2 -38 -10 -9 -26
-15 -37 -13 -16 4 -18 2 -7 -9 20 -22 14 -49 -21 -84 -25 -25 -31 -37 -23 -45
8 -8 7 -13 -3 -20 -12 -7 -12 -11 -2 -24 7 -8 11 -25 9 -38 -3 -20 -8 -23 -37
-20 -27 3 -33 1 -28 -12 8 -20 -23 -22 -42 -3 -11 10 -11 8 -2 -10 6 -12 11
-35 11 -51 0 -26 -3 -29 -30 -27 -34 2 -36 -2 -15 -25 13 -14 11 -16 -21 -12
-20 3 -38 11 -41 18 -7 19 -19 18 -27 -2 -4 -10 5 -26 25 -45 18 -16 29 -32
25 -36 -3 -3 -15 2 -27 13 -20 18 -21 18 -35 -1 -8 -10 -12 -27 -8 -37 5 -17
3 -17 -23 -6 -15 7 -32 18 -36 25 -14 23 -27 14 -21 -14 4 -23 0 -30 -20 -39
-18 -9 -28 -8 -38 1 -7 7 -23 16 -35 20 -18 5 -23 2 -23 -10 0 -14 -7 -16 -50
-10 -43 6 -50 5 -50 -10 0 -14 -6 -17 -35 -12 -23 4 -35 2 -35 -6 0 -7 -10 0
-21 15 -12 16 -37 32 -60 38 -65 18 -48 29 34 22 9 -1 17 -9 17 -17 0 -8 5
-15 10 -15 6 0 10 16 10 36 0 31 3 35 20 29 27 -9 25 11 -2 26 -22 12 -53 47
-53 61 0 3 -3 10 -7 14 -5 4 -8 11 -8 16 0 4 3 7 8 6 4 -1 26 10 49 25 24 15
47 27 53 27 5 0 10 6 10 14 0 26 50 56 93 56 l40 0 -7 40 c-6 39 5 53 21 27 8
-12 57 -47 67 -47 2 0 -2 14 -10 30 -9 18 -23 30 -35 30 -11 0 -19 7 -19 16 0
9 -7 14 -17 12 -10 -1 -23 0 -28 4 -6 3 -35 -1 -65 -9 -33 -9 -103 -16 -175
-17 -66 -1 -126 -5 -132 -9 -7 -5 -13 -4 -13 1 0 5 -44 10 -97 10 -54 1 -149
4 -210 6 -63 3 -113 1 -113 -4 0 -4 4 -10 8 -12 4 -1 2 -14 -5 -28 -12 -24
-13 -24 -13 -3 0 38 -10 50 -35 45 -17 -3 -27 1 -31 12 -9 24 -29 19 -43 -11
-11 -23 -10 -29 4 -39 13 -10 16 -21 10 -53 -6 -34 -4 -40 8 -35 9 3 16 -3 20
-15 3 -12 12 -21 21 -21 9 0 16 -7 16 -16 0 -14 2 -15 17 -3 15 13 16 11 10
-12 -5 -19 1 -39 18 -70 42 -75 46 -89 36 -125 -7 -27 -7 -34 5 -34 21 0 17
-27 -8 -44 -12 -9 -18 -19 -14 -23 5 -5 11 -2 13 5 3 6 9 9 14 6 6 -3 16 0 24
6 12 10 15 10 15 0 0 -6 -9 -14 -20 -17 -14 -4 -20 -14 -20 -34 0 -19 -5 -29
-15 -29 -8 0 -15 -5 -15 -11 0 -5 5 -7 10 -4 6 3 10 1 10 -5 0 -17 -19 -50
-29 -50 -10 0 -7 57 3 67 9 10 7 53 -3 53 -5 0 -15 -17 -22 -37 -12 -41 -27
-63 -39 -63 -5 0 -6 8 -3 19 6 24 -13 36 -32 21 -12 -10 -15 -9 -15 8 0 48
-40 36 -46 -13 -3 -36 -24 -85 -35 -85 -5 0 -9 4 -9 10 0 5 -6 9 -12 7 -14 -2
-16 22 -4 67 7 27 6 28 -10 11 -16 -16 -19 -16 -30 -1 -10 14 -13 14 -17 2 -3
-8 3 -25 14 -37 12 -13 17 -30 13 -41 -3 -11 -1 -24 4 -31 15 -19 22 -47 12
-47 -5 0 -12 9 -15 20 -9 27 -35 25 -36 -2 -1 -20 -2 -20 -9 5 -5 15 -5 41 0
57 7 23 5 30 -6 30 -17 0 -18 14 -3 42 10 19 9 20 -22 13 l-33 -7 27 32 c41
49 34 70 -10 28 -13 -12 -26 -19 -29 -15 -8 7 47 97 59 97 5 0 5 5 2 10 -12
19 -25 10 -47 -31 -13 -23 -28 -51 -35 -63 -10 -16 -9 -24 2 -37 8 -8 15 -23
15 -32 0 -23 -27 -11 -33 15 -8 29 -29 12 -25 -20 2 -15 -1 -29 -7 -32 -6 -3
-12 14 -15 39 -3 25 -10 46 -16 48 -14 5 -64 -60 -64 -84 -1 -27 -24 -53 -48
-53 -11 0 -23 -6 -25 -12 -4 -9 -6 -7 -6 3 -1 9 7 27 17 40 20 26 27 69 11 69
-5 0 -9 -4 -9 -10 0 -5 -6 -10 -14 -10 -19 0 -24 -17 -22 -68 2 -29 -2 -42
-11 -42 -7 0 -13 -7 -13 -15 0 -8 -6 -15 -12 -15 -12 -1 -46 -64 -62 -114 -4
-10 -9 -16 -12 -13 -9 8 15 160 27 167 5 4 7 14 4 22 -4 10 8 37 31 67 42 60
40 76 -4 31 -41 -41 -50 -38 -17 6 29 38 25 63 -5 26 -10 -12 -21 -22 -24 -22
-13 0 -5 21 14 40 11 11 16 20 11 20 -5 0 -18 -11 -29 -25 -11 -14 -24 -25
-30 -25 -10 0 -22 -55 -22 -106 0 -18 -6 -34 -13 -37 -7 -3 -19 -23 -25 -46
-21 -67 -36 -63 -28 8 5 40 3 61 -4 61 -5 0 -10 7 -10 15 0 8 -4 15 -10 15 -5
0 -10 9 -10 20 0 11 5 20 10 20 6 0 10 5 10 11 0 8 -5 7 -15 -1 -23 -19 -30
-4 -11 25 9 14 14 34 11 45 -3 10 -1 21 4 24 16 10 40 65 31 71 -4 3 -10 -2
-14 -10 -11 -30 -29 -16 -22 18 6 31 6 31 -9 10 -8 -12 -14 -32 -13 -45 2 -16
-2 -23 -14 -22 -10 1 -20 -7 -23 -17 -4 -11 -10 -19 -15 -19 -5 0 -16 -7 -24
-16 -15 -14 -16 -14 -16 0 0 9 7 16 15 16 20 0 19 20 -1 35 -14 10 -13 13 10
28 29 19 34 37 11 37 -8 0 -15 -4 -15 -10 0 -5 -4 -10 -10 -10 -18 0 -10 39
10 50 11 6 17 17 14 24 -8 21 27 71 37 54 4 -7 11 -9 15 -5 4 4 3 12 -3 18
-13 13 -3 37 31 76 22 26 15 43 -9 23 -15 -13 -19 -8 -16 23 1 9 -4 17 -11 17
-17 0 -41 -38 -32 -51 3 -6 -2 -19 -12 -30 -16 -18 -18 -18 -36 -3 -25 24 -23
38 10 55 27 14 82 68 82 82 0 13 -16 8 -38 -13 -12 -11 -25 -20 -31 -20 -5 0
-12 -7 -15 -16 -3 -8 -9 -13 -14 -10 -22 13 -55 -52 -46 -90 5 -18 2 -24 -10
-24 -9 0 -16 -5 -16 -11 0 -5 -4 -8 -9 -5 -5 4 -5 22 1 43 12 46 19 94 22 150
1 26 9 50 22 65 26 28 37 58 23 58 -7 0 -9 13 -5 35 6 29 4 34 -9 29 -17 -7
-30 -47 -20 -64 4 -6 -2 -25 -12 -43 -24 -39 -34 -77 -22 -77 18 0 8 -28 -16
-44 -34 -22 -37 -21 -30 17 6 30 5 32 -26 34 -39 3 -62 -22 -47 -50 5 -11 7
-30 4 -43 -4 -14 -2 -24 4 -24 5 0 10 -7 10 -15 0 -9 -9 -15 -25 -15 -29 0
-32 -12 -8 -40 11 -13 18 -40 20 -72 1 -29 -2 -46 -6 -39 -7 10 -10 10 -16 1
-4 -7 -2 -15 4 -19 6 -4 9 -15 5 -24 -7 -20 -16 -21 -32 -5 -9 9 -13 7 -18 -5
-6 -16 -34 -24 -34 -10 0 4 11 19 25 33 13 14 26 35 28 47 2 13 6 26 10 29 10
10 9 52 -2 58 -5 4 -11 0 -14 -6 -3 -10 -7 -10 -20 1 -15 12 -17 11 -17 -3 0
-9 7 -28 16 -42 9 -13 14 -28 10 -31 -9 -9 -46 33 -46 53 0 9 -8 28 -19 42
-10 15 -20 36 -22 47 -3 11 -11 21 -20 23 -12 2 -15 -4 -11 -29 3 -22 1 -30
-7 -25 -14 9 -14 49 0 63 12 12 6 43 -9 43 -13 0 -31 -142 -21 -160 7 -13 9
-13 10 0 1 8 1 18 0 23 -2 15 18 6 22 -10 9 -33 7 -163 -3 -163 -5 0 -14 19
-20 43 -6 23 -19 65 -30 92 -10 28 -22 60 -25 73 -5 19 -9 21 -21 11 -8 -6
-14 -8 -14 -4 0 4 -6 2 -13 -4 -16 -13 -27 -5 -27 21 0 15 -5 18 -20 13 -17
-6 -19 -1 -18 42 0 27 -4 49 -11 51 -6 2 -11 9 -11 17 0 7 -7 18 -15 25 -10 8
-15 29 -15 54 0 69 -1 76 -14 76 -8 0 -16 14 -20 31 -3 17 -10 28 -16 24 -13
-8 -13 -68 1 -82 8 -8 7 -18 -4 -38 l-14 -28 -7 36 c-7 40 -26 60 -26 28 0
-11 5 -23 11 -26 6 -4 8 -14 5 -22 -6 -14 18 -54 59 -101 16 -19 17 -25 6 -32
-17 -10 -43 -2 -35 11 3 5 -3 21 -14 37 -11 15 -29 52 -42 82 -12 30 -26 63
-31 73 -6 10 -7 27 -4 38 8 23 -1 69 -13 69 -4 0 -6 -18 -4 -40 3 -25 0 -40
-7 -40 -6 0 -11 9 -11 19 0 11 -4 22 -9 26 -6 3 -10 13 -10 23 0 9 -4 38 -10
64 -6 27 -8 56 -5 65 5 14 4 15 -4 4 -8 -12 -15 -9 -36 14 -14 15 -26 32 -26
38 0 5 -7 4 -15 -3 -22 -19 -44 3 -25 24 7 9 17 13 23 9 7 -4 8 8 4 35 -5 39
4 55 18 32 4 -6 10 -8 14 -5 5 2 11 -18 15 -45 7 -55 20 -71 31 -37 8 21 8 21
12 -5 9 -61 31 -11 23 52 -3 29 -35 89 -47 90 -18 0 -20 43 -3 57 19 15 1 50
-23 45 -28 -5 -39 33 -23 81 8 23 20 42 27 42 7 0 14 5 16 12 5 15 -14 26 -22
13 -3 -5 -13 -10 -22 -10 -13 0 -12 4 5 19 24 20 30 75 11 87 -6 3 -9 19 -7
35 3 15 1 26 -4 23 -4 -3 -8 -14 -8 -24 0 -10 -4 -22 -10 -25 -5 -3 -10 -1
-10 4 0 6 -7 11 -15 11 -9 0 -15 9 -15 25 0 18 -4 23 -15 19 -13 -5 -14 -2 -6
18 5 15 5 31 0 41 -8 13 -6 15 4 11 8 -3 17 2 20 13 2 10 8 26 12 36 6 14 2
17 -19 17 -29 0 -35 14 -10 24 18 7 15 52 -3 49 -7 -2 -10 4 -7 12 4 8 1 15
-6 15 -9 0 -10 12 -6 44 6 38 4 47 -15 65 l-23 21 22 0 c26 0 30 25 5 34 -12
5 -14 9 -5 18 17 17 15 38 -3 38 -18 0 -18 5 -5 31 8 13 7 32 -1 61 -6 23 -13
70 -15 105 -2 34 -4 66 -5 70 -1 5 -1 10 0 13 1 3 3 39 6 80 10 177 16 242 31
360 18 147 35 245 62 355 11 44 25 107 32 140 7 33 16 70 21 83 5 13 7 28 4
33 -3 5 -2 17 4 27 10 19 40 194 47 272 3 41 18 125 44 250 6 25 11 59 12 76
1 20 7 30 14 27 9 -3 44 72 44 95 0 12 -33 -25 -41 -46 -6 -14 -15 -22 -23
-19 -7 3 -19 0 -25 -6 -8 -8 -11 -8 -11 0 0 7 9 15 20 18 11 3 23 17 26 31 3
13 10 24 15 24 5 0 9 10 9 23 0 16 3 18 9 8 6 -10 15 -5 35 21 31 42 33 51 6
43 -11 -3 -20 -3 -20 2 1 14 27 43 39 43 8 0 10 8 6 20 -8 27 11 60 36 60 18
0 20 4 15 25 -4 14 -2 25 3 25 15 0 45 73 44 107 -1 25 4 33 24 38 19 4 24 11
20 25 -3 11 -1 20 5 20 5 0 7 4 3 9 -3 5 -1 12 5 16 5 3 10 14 10 23 0 9 11
38 24 65 13 26 19 50 14 53 -5 3 0 21 12 40 24 42 25 48 5 40 -21 -8 -19 4 9
56 13 25 27 60 31 79 6 30 30 84 56 129 5 8 13 24 18 35 5 11 24 36 43 56 18
20 60 69 93 109 33 41 72 85 86 99 85 83 130 121 141 121 7 0 28 18 47 40 19
22 42 40 51 40 10 0 23 6 29 13 6 8 23 12 42 9 22 -3 30 -1 25 7 -5 7 1 11 16
12 94 4 134 11 144 24 6 8 21 15 33 15 23 0 27 10 10 27 -7 7 -3 9 15 6 14 -3
26 -10 26 -15 0 -13 39 1 73 26 17 12 31 17 35 11 4 -6 19 -16 34 -24 29 -15
112 -8 136 11 7 6 28 8 46 5 25 -4 36 -1 40 10 4 11 14 13 36 8 22 -5 32 -3
36 9 9 23 24 20 24 -4 0 -11 5 -20 11 -20 6 0 8 7 4 18 -5 14 -4 15 6 5 15
-15 55 -17 63 -4 4 5 29 12 56 16 28 4 50 11 50 15 0 5 14 2 31 -7 17 -8 56
-17 86 -19z m563 -89 c21 -25 1 -31 -22 -7 -18 18 -19 22 -6 22 8 0 21 -7 28
-15z m560 -210 c0 -8 -7 -15 -16 -15 -14 0 -14 3 -4 15 7 8 14 15 16 15 2 0 4
-7 4 -15z m-3181 -1492 c0 -10 -4 -27 -9 -38 -7 -16 -9 -13 -9 18 -1 20 4 37
9 37 6 0 10 -8 9 -17z m-54 -83 c-3 -5 -11 -10 -16 -10 -6 0 -7 5 -4 10 3 6
11 10 16 10 6 0 7 -4 4 -10z m-8 -62 c-3 -8 -6 -5 -6 6 -1 11 2 17 5 13 3 -3
4 -12 1 -19z m3 -112 c0 -3 -4 -8 -10 -11 -5 -3 -10 -1 -10 4 0 6 5 11 10 11
6 0 10 -2 10 -4z m23 -106 c3 -13 0 -23 -9 -27 -21 -8 -26 1 -18 31 7 29 19
27 27 -4z m-79 -397 c-9 -35 -13 -43 -25 -43 -12 0 -12 27 1 51 16 29 31 23
24 -8z m-30 -88 c3 -8 1 -15 -4 -15 -6 0 -10 7 -10 15 0 8 2 15 4 15 2 0 6 -7
10 -15z m-243 -135 c41 -21 51 -30 127 -103 34 -34 42 -47 38 -67 -3 -14 -10
-74 -16 -135 -5 -60 -12 -128 -15 -150 -18 -130 -21 -165 -11 -175 5 -5 6 -13
2 -17 -4 -4 -11 -1 -16 7 -7 11 -11 9 -19 -11 -5 -14 -27 -40 -49 -57 -29 -23
-43 -45 -55 -84 -24 -76 -29 -134 -15 -150 7 -7 25 -32 40 -54 23 -36 32 -42
70 -46 24 -3 44 -4 44 -4 1 1 -2 27 -6 60 -5 32 -5 68 0 80 6 17 9 12 15 -29
4 -27 13 -88 21 -134 13 -76 13 -85 -3 -96 -10 -8 -12 -14 -5 -18 5 -4 8 -16
5 -27 -3 -11 0 -20 6 -20 6 0 11 -9 11 -21 0 -11 -4 -17 -10 -14 -6 4 -7 -2
-1 -17 4 -13 5 -32 1 -43 -4 -11 -3 -28 2 -38 5 -11 7 -30 4 -43 -9 -35 10
-30 23 6 13 40 24 39 16 -2 -6 -25 -4 -30 8 -25 9 3 18 -1 21 -9 3 -8 1 -14
-4 -14 -6 0 -10 -15 -11 -32 l-1 -33 -10 33 c-12 35 -28 43 -28 13 0 -38 -12
-51 -44 -51 -56 0 -142 74 -186 161 -80 157 -162 489 -120 489 5 0 7 -6 4 -13
-3 -8 2 -34 11 -58 10 -24 18 -53 19 -64 7 -64 66 -175 92 -175 16 0 19 16 5
25 -5 3 -13 20 -16 38 -4 17 -21 59 -37 92 l-31 59 6 156 c3 85 9 167 13 183
5 23 4 26 -11 21 -19 -8 -19 -4 5 226 6 58 13 141 16 185 2 44 7 87 10 96 7
25 -20 43 -46 29 -27 -15 -34 -8 -26 25 7 29 59 65 94 65 12 0 41 -9 63 -20z
m4664 -599 c3 -6 -3 -15 -14 -20 -16 -9 -18 -8 -14 9 6 21 18 26 28 11z m-73
-248 c-1 -43 -1 -100 -2 -126 0 -26 4 -56 10 -67 19 -35 12 -110 -15 -157 -14
-23 -30 -43 -36 -43 -13 0 -4 137 10 154 5 6 7 17 3 23 -10 15 -7 261 2 292
14 43 28 5 28 -76z m-4471 40 c-9 -16 -10 -14 -11 12 0 21 3 26 11 18 8 -8 8
-16 0 -30z m-304 -10 c-3 -10 -5 -4 -5 12 0 17 2 24 5 18 2 -7 2 -21 0 -30z
m3107 -169 c4 -9 4 -19 2 -21 -8 -8 -26 8 -26 23 0 19 16 18 24 -2z m-880
-115 c-7 -13 -31 -11 -40 2 -9 16 18 30 33 17 7 -6 10 -14 7 -19z m493 -33
c-3 -7 -1 -18 4 -23 12 -12 0 -45 -14 -40 -6 2 -14 15 -18 30 -5 20 -3 30 9
37 23 13 25 12 19 -4z m-487 -52 c0 -2 -9 -4 -20 -4 -11 0 -20 4 -20 9 0 5 9
7 20 4 11 -3 20 -7 20 -9z m-301 -11 c-23 -30 -43 -42 -53 -33 -10 10 31 49
53 50 11 0 11 -3 0 -17z m-1519 -3 c0 -5 -2 -10 -4 -10 -3 0 -8 5 -11 10 -3 6
-1 10 4 10 6 0 11 -4 11 -10z m3220 -11 c0 -12 -47 -12 -54 0 -3 4 -3 10 0 13
7 8 54 -3 54 -13z m-1340 -13 c0 -8 -7 -16 -15 -20 -17 -6 -18 -4 -9 18 8 20
24 21 24 2z m1397 -42 c-10 -10 -48 27 -41 38 4 6 16 1 27 -11 12 -11 18 -24
14 -27z m-1987 22 c0 -8 -7 -16 -15 -20 -17 -6 -18 -4 -9 18 8 20 24 21 24 2z
m-1300 -45 c-10 -20 -30 -37 -30 -26 0 11 25 45 33 45 4 0 3 -9 -3 -19z m1950
-1 c0 -5 -4 -10 -10 -10 -5 0 -10 5 -10 10 0 6 5 10 10 10 6 0 10 -4 10 -10z
m64 -25 c8 -8 17 -15 20 -15 3 0 6 7 6 15 0 8 7 15 15 15 10 0 15 -10 15 -27
0 -20 3 -24 11 -16 14 14 63 -7 77 -34 7 -11 26 -18 58 -21 27 -2 56 -8 66
-13 10 -5 32 -6 50 -2 42 8 87 8 116 -2 18 -6 22 -4 22 14 0 31 47 24 72 -12
11 -15 25 -27 31 -26 7 1 19 0 27 -4 32 -12 80 -16 85 -7 11 18 25 10 25 -15
0 -23 3 -25 40 -22 24 2 40 -1 40 -7 0 -18 60 -40 73 -27 17 17 25 13 29 -11
2 -17 13 -25 41 -32 20 -5 37 -13 37 -18 0 -4 5 -8 11 -8 5 0 7 5 4 10 -3 6
-1 10 4 10 14 0 14 -17 0 -26 -13 -8 26 -33 53 -34 24 0 31 -16 17 -41 -11
-21 -36 -23 -133 -7 -16 2 -23 -7 -34 -45 -7 -26 -17 -45 -22 -42 -4 3 -3 18
3 34 8 23 8 33 -2 45 -19 22 -34 20 -26 -4 3 -10 1 -28 -5 -40 -8 -15 -8 -20
2 -20 9 0 9 -3 1 -11 -18 -18 -31 -2 -39 46 -3 25 -11 48 -17 52 -6 4 -8 -2
-4 -17 3 -13 1 -30 -5 -37 -7 -9 -7 -17 1 -27 17 -20 -4 -25 -62 -16 -27 4
-58 5 -70 3 -17 -3 -28 5 -47 36 -28 47 -45 54 -36 15 6 -23 4 -26 -13 -21
-12 3 -24 1 -27 -5 -3 -5 -18 -14 -32 -19 -20 -8 -28 -7 -34 6 -13 22 -38 19
-38 -5 0 -15 -9 -21 -40 -26 -22 -4 -40 -11 -40 -16 0 -5 -49 -8 -112 -7 -106
2 -151 11 -216 42 -18 9 -25 8 -32 -3 -7 -12 -15 -9 -40 15 -23 22 -30 25 -30
12 0 -14 -10 -17 -51 -17 -28 0 -60 5 -71 11 -12 7 -23 7 -27 2 -3 -5 -44 -9
-89 -8 -83 2 -108 12 -98 41 11 29 -13 39 -88 35 -43 -1 -76 1 -76 7 0 5 5 24
11 42 13 36 -1 54 -33 44 -30 -9 -20 13 12 26 30 13 52 33 30 28 -19 -5 -22
39 -4 46 9 3 20 4 25 0 5 -3 29 -2 54 2 34 5 45 11 45 25 0 22 9 28 49 31 24
2 37 10 47 30 21 41 44 36 44 -9 0 -29 3 -34 12 -25 7 7 18 12 25 12 17 0 63
45 63 60 0 7 6 8 19 0 21 -11 51 -4 51 12 0 10 19 8 66 -7 15 -5 23 0 32 19
13 29 33 33 56 11z m-901 -85 c3 -13 0 -20 -10 -20 -8 0 -11 5 -8 13 4 6 -2 1
-13 -13 -25 -30 -40 -20 -24 15 14 30 48 33 55 5z m-23 -55 c-7 -9 -15 -13
-19 -10 -3 3 1 10 9 15 21 14 24 12 10 -5z m-1046 -21 c9 -24 7 -54 -4 -54 -5
0 -10 9 -10 19 0 11 -3 26 -6 35 -3 9 -2 16 4 16 5 0 13 -7 16 -16z m3456 -14
c0 -5 -4 -10 -10 -10 -5 0 -10 5 -10 10 0 6 5 10 10 10 6 0 10 -4 10 -10z
m-2360 -8 c0 -8 -43 -32 -58 -32 -6 0 49 40 56 40 1 0 2 -4 2 -8z m75 -2 c-3
-5 -12 -10 -18 -10 -7 0 -6 4 3 10 19 12 23 12 15 0z m2315 -10 c0 -5 -4 -10
-10 -10 -5 0 -10 5 -10 10 0 6 5 10 10 10 6 0 10 -4 10 -10z m-3543 -42 c-3
-8 -6 -5 -6 6 -1 11 2 17 5 13 3 -3 4 -12 1 -19z m1318 12 c-3 -5 -11 -10 -16
-10 -6 0 -7 5 -4 10 3 6 11 10 16 10 6 0 7 -4 4 -10z m-1275 -23 c0 -13 5 -28
11 -34 14 -14 3 -47 -12 -38 -6 4 -9 16 -6 26 4 14 0 19 -14 19 -14 0 -19 -7
-19 -27 0 -20 -3 -24 -11 -16 -8 8 -5 22 12 52 26 46 39 52 39 18z m1121 -9
c-4 -12 -14 -24 -20 -26 -8 -3 -7 5 4 22 21 32 27 33 16 4z m2419 -29 c0 -7 8
-18 18 -25 12 -9 14 -16 6 -23 -13 -14 -39 5 -49 37 -5 16 -2 22 9 22 9 0 16
-5 16 -11z m-2503 -64 c-17 -19 -38 -35 -47 -35 -9 0 -32 -18 -50 -39 -32 -36
-50 -44 -50 -20 0 5 7 9 15 9 11 0 14 7 10 23 -8 37 51 91 91 81 12 -3 25 -1
28 5 4 6 13 11 21 11 8 0 1 -14 -18 -35z m2469 8 c35 -29 43 -43 22 -43 -13 0
-47 32 -62 58 -12 19 2 14 40 -15z m-3438 -59 c10 -20 8 -24 -11 -30 -12 -4
-25 -12 -29 -18 -10 -14 -24 6 -40 57 -9 31 -9 40 2 47 17 10 64 -23 78 -56z
m1032 38 c0 -4 -4 -13 -8 -20 -11 -16 -42 -5 -36 13 3 8 13 11 21 8 12 -5 14
-3 8 7 -5 9 -4 11 3 6 7 -4 12 -10 12 -14z m2338 -10 c2 -7 -2 -10 -12 -6 -9
3 -16 11 -16 16 0 13 23 5 28 -10z m-1898 -42 c0 -5 -4 -10 -10 -10 -5 0 -10
5 -10 10 0 6 5 10 10 10 6 0 10 -4 10 -10z m1944 -87 c6 -42 -3 -55 -20 -30
-5 6 -9 19 -8 27 1 8 2 26 3 40 2 36 17 12 25 -37z m515 25 c0 -28 -2 -30 -9
-13 -12 28 -12 45 0 45 6 0 10 -15 9 -32z m-3949 -3 c0 -8 -7 -15 -16 -15 -14
0 -14 3 -4 15 7 8 14 15 16 15 2 0 4 -7 4 -15z m85 -95 c3 -5 1 -10 -4 -10 -6
0 -11 5 -11 10 0 6 2 10 4 10 3 0 8 -4 11 -10z m-55 -114 c0 -15 -18 -31 -26
-23 -7 7 7 37 17 37 5 0 9 -6 9 -14z m40 -122 c0 -13 5 -26 10 -29 13 -8 13
-45 0 -45 -16 0 -40 57 -40 97 1 36 2 37 15 19 8 -11 15 -30 15 -42z m3667 24
c-3 -8 -6 -5 -6 6 -1 11 2 17 5 13 3 -3 4 -12 1 -19z m-44 -96 c-6 -24 -23
-30 -23 -9 0 13 21 39 26 34 2 -2 1 -13 -3 -25z m-3563 -27 c13 8 13 -5 0 -25
-8 -12 -10 -12 -10 -1 0 8 -3 11 -7 8 -9 -10 -34 13 -27 25 3 5 11 4 19 -2 8
-7 19 -9 25 -5z m9 -102 c8 -18 9 -29 1 -37 -7 -7 -10 -4 -10 11 0 12 -4 25
-10 28 -12 8 -13 25 -2 25 5 0 14 -12 21 -27z m126 -11 c-3 -4 -10 0 -15 8 -6
9 -5 17 3 22 13 8 24 -19 12 -30z m3181 -9 c-5 -12 -10 -13 -18 -5 -8 8 -8 15
3 28 15 18 25 4 15 -23z m-2694 -52 c-5 -3 -12 -13 -15 -21 -3 -8 -6 0 -6 19
-1 29 1 32 14 21 9 -7 12 -16 7 -19z m1127 -19 c1 -7 -3 -10 -9 -7 -5 3 -10
18 -9 33 0 24 1 25 9 7 5 -11 9 -26 9 -33z m-1729 18 c0 -5 -2 -10 -4 -10 -3
0 -8 5 -11 10 -3 6 -1 10 4 10 6 0 11 -4 11 -10z m53 -27 c-19 -15 -33 -8 -33
17 0 16 3 17 25 7 22 -11 23 -13 8 -24z m3308 -16 c-6 -6 -11 -19 -11 -28 0
-18 -17 -35 -26 -26 -8 8 30 75 39 70 5 -3 4 -10 -2 -16z m-3281 -27 c0 -11 7
-23 15 -26 8 -3 17 -15 20 -25 4 -11 14 -18 23 -17 9 2 18 -5 20 -14 7 -37
-28 -17 -63 34 -37 55 -41 68 -25 68 6 0 10 -9 10 -20z m54 11 c3 -5 -1 -14
-9 -21 -13 -10 -15 -9 -15 9 0 21 14 28 24 12z m506 -61 c0 -38 -3 -70 -6 -70
-3 0 -12 7 -20 15 -8 8 -22 11 -30 8 -13 -5 -15 -1 -9 18 4 13 14 32 22 41 9
10 13 24 10 32 -7 16 1 26 20 26 10 0 13 -18 13 -70z m1685 50 c3 -5 1 -10 -4
-10 -6 0 -11 5 -11 10 0 6 2 10 4 10 3 0 8 -4 11 -10z m-1892 -117 c11 -59 -6
-35 -28 37 -6 22 -5 23 8 10 8 -8 17 -30 20 -47z m-198 27 c-4 -12 -2 -26 3
-33 14 -18 22 -47 14 -47 -14 0 -43 66 -36 83 9 24 27 21 19 -3z m529 -5 c-8
-32 3 -32 39 3 22 20 27 22 19 7 -5 -11 -20 -29 -31 -39 -12 -11 -21 -25 -21
-31 0 -16 -29 -40 -37 -31 -4 4 -1 17 6 29 10 15 10 22 2 25 -16 5 -14 19 7
41 23 25 23 25 16 -4z m1580 -4 c3 -5 -1 -12 -10 -15 -14 -5 -14 -9 -3 -23 12
-15 12 -16 -4 -10 -10 4 -23 7 -28 7 -14 0 -11 38 4 43 20 9 35 8 41 -2z
m-2053 -20 c-12 -8 -12 -12 2 -26 20 -19 20 -22 7 -30 -12 -7 -44 41 -35 55 3
5 14 10 23 10 14 0 14 -2 3 -9z m393 -60 c-3 -3 -9 1 -14 9 -7 12 -10 11 -16
-5 -5 -11 -3 -20 4 -23 7 -2 12 -11 11 -20 0 -11 -2 -12 -6 -4 -2 6 -9 10 -14
6 -15 -9 -10 44 6 60 8 8 15 21 16 28 0 7 5 0 10 -16 4 -17 6 -32 3 -35z
m-524 39 c0 -5 -2 -10 -4 -10 -3 0 -8 5 -11 10 -3 6 -1 10 4 10 6 0 11 -4 11
-10z m1810 -20 c0 -5 -4 -10 -10 -10 -5 0 -10 5 -10 10 0 6 5 10 10 10 6 0 10
-4 10 -10z m310 -9 c0 -10 -24 -21 -48 -21 -13 0 -12 3 4 15 21 16 44 19 44 6z
m-2054 -74 c0 -54 0 -56 -18 -40 -13 11 -18 12 -18 3 0 -22 -27 8 -39 43 -10
29 -9 30 4 13 8 -10 16 -24 18 -30 8 -20 19 2 20 39 1 27 5 35 16 33 12 -3 16
-17 17 -61z m54 46 c11 -10 20 -23 20 -30 0 -7 5 -13 10 -13 6 0 8 11 4 25 -3
14 -4 25 0 25 9 0 36 -57 36 -76 0 -16 -1 -16 -19 0 -18 17 -19 16 -26 -14 -5
-22 -1 -40 15 -66 11 -20 18 -39 15 -42 -13 -13 -39 16 -51 56 -6 24 -17 48
-22 55 -10 11 -15 97 -6 97 2 0 13 -8 24 -17z m1950 -13 c0 -5 -5 -10 -11 -10
-5 0 -7 5 -4 10 3 6 8 10 11 10 2 0 4 -4 4 -10z m-370 -46 c0 -16 -16 -19 -25
-4 -8 13 4 32 16 25 5 -4 9 -13 9 -21z m-1197 -59 c-1 -41 -5 -80 -9 -86 -4
-7 -6 -53 -5 -103 1 -50 2 -99 2 -108 0 -10 4 -20 10 -23 5 -4 9 -19 9 -36 0
-16 5 -29 10 -29 6 0 10 -9 10 -19 0 -11 5 -23 10 -26 6 -3 10 1 10 9 0 8 3
17 8 19 4 3 5 -15 3 -39 -3 -45 -7 -50 -28 -36 -14 9 -43 88 -43 120 0 22 -20
32 -20 10 0 -7 -9 -24 -18 -36 l-18 -24 -17 26 c-9 14 -17 33 -17 42 0 8 -10
24 -22 34 -18 14 -20 21 -11 31 9 9 7 18 -9 40 l-21 28 26 21 c30 24 34 51 12
74 -8 8 -15 24 -15 35 0 12 -4 21 -10 21 -5 0 -9 15 -9 33 1 17 3 24 6 14 2
-9 8 -15 13 -12 14 8 24 -16 22 -52 -2 -18 2 -33 7 -33 14 0 36 -101 23 -109
-6 -3 -15 -19 -21 -34 -10 -25 -8 -29 13 -37 14 -5 26 -19 28 -31 4 -30 20
-34 36 -8 11 17 11 25 -3 45 -8 13 -22 24 -30 24 -18 0 -19 14 -5 41 13 24 27
24 33 2 8 -29 6 27 -2 85 -6 40 -4 52 6 52 17 0 28 49 14 63 -15 15 -14 39 5
65 8 12 16 22 17 22 1 0 1 -34 0 -75z m77 60 c0 -8 -4 -15 -10 -15 -5 0 -10 7
-10 15 0 8 5 15 10 15 6 0 10 -7 10 -15z m-313 -27 c-3 -7 -5 -2 -5 12 0 14 2
19 5 13 2 -7 2 -19 0 -25z m1911 -6 c3 -16 12 -25 33 -29 16 -3 29 -12 29 -20
0 -13 -3 -13 -15 -3 -8 7 -22 9 -31 6 -23 -9 -54 21 -54 51 0 32 34 27 38 -5z
m292 8 c0 -5 -2 -10 -4 -10 -3 0 -8 5 -11 10 -3 6 -1 10 4 10 6 0 11 -4 11
-10z m-2045 -18 c0 -18 -20 -15 -23 4 -3 10 1 15 10 12 7 -3 13 -10 13 -16z
m1695 -2 c0 -5 -2 -10 -4 -10 -3 0 -8 5 -11 10 -3 6 -1 10 4 10 6 0 11 -4 11
-10z m130 0 c0 -5 -4 -10 -10 -10 -5 0 -10 5 -10 10 0 6 5 10 10 10 6 0 10 -4
10 -10z m-2170 -62 c0 -36 -21 -33 -31 5 -8 29 -3 38 17 30 8 -3 14 -19 14
-35z m390 17 c0 -25 -14 -34 -24 -16 -8 12 3 41 15 41 5 0 9 -11 9 -25z m1309
-73 c0 -13 -3 -20 -9 -17 -5 3 -9 27 -9 53 1 42 2 44 9 17 4 -16 8 -40 9 -53z
m-1124 22 c-9 -21 -19 -46 -24 -54 -5 -9 -12 -35 -16 -58 -4 -23 -11 -44 -16
-48 -14 -8 0 76 19 113 13 26 14 35 4 45 -7 7 -12 18 -12 26 0 12 3 12 16 1
13 -11 17 -10 26 5 17 30 19 11 3 -30z m1505 15 c0 -10 -4 -19 -9 -19 -10 0
-21 36 -14 44 10 10 23 -5 23 -25z m-70 -13 c5 -13 14 -27 19 -31 6 -3 11 -14
11 -23 0 -12 -9 -7 -30 16 -30 33 -39 62 -20 62 6 0 15 -11 20 -24z m-412 -23
c-4 -22 -22 -20 -26 1 -2 10 3 16 13 16 10 0 15 -7 13 -17z m560 -50 c-17 -21
-23 -15 -25 22 l-2 36 19 -23 c13 -16 15 -27 8 -35z m-775 -12 c-10 -22 -21
-41 -25 -41 -11 0 -11 2 14 56 12 27 23 44 25 38 2 -7 -4 -30 -14 -53z m727
-3 c0 -11 5 -28 10 -38 7 -13 7 -21 0 -25 -5 -3 -10 0 -10 8 0 8 -6 17 -14 20
-8 3 -15 14 -15 24 0 10 -3 32 -6 48 l-6 30 20 -24 c12 -13 21 -32 21 -43z
m-186 31 c-3 -5 -10 -7 -15 -3 -5 3 -7 10 -3 15 3 5 10 7 15 3 5 -3 7 -10 3
-15z m-824 -13 c0 -8 -4 -18 -10 -21 -5 -3 -10 3 -10 14 0 12 5 21 10 21 6 0
10 -6 10 -14z m358 -8 c-2 -6 -10 -14 -16 -16 -7 -2 -10 2 -6 12 7 18 28 22
22 4z m-475 -47 c-4 -21 -8 -28 -13 -20 -5 6 -3 23 3 36 13 30 16 26 10 -16z
m-80 -30 c-6 -3 -13 -17 -16 -31 -9 -34 -24 -56 -33 -47 -8 7 7 46 33 87 11
17 18 20 21 11 2 -7 0 -16 -5 -20z m-152 -74 c-19 -19 -24 2 -10 49 l14 47 3
-43 c2 -23 -1 -47 -7 -53z m-271 64 c0 -5 3 -18 6 -28 5 -15 3 -15 -7 2 -7 11
-17 23 -23 27 -7 5 -4 8 7 8 9 0 17 -4 17 -9z m45 -62 c-10 -15 -25 -10 -19 6
4 8 10 12 15 9 5 -3 7 -10 4 -15z m855 12 c0 -12 -20 -25 -27 -18 -7 7 6 27
18 27 5 0 9 -4 9 -9z m-50 -31 c0 -5 -4 -10 -10 -10 -5 0 -10 5 -10 10 0 6 5
10 10 10 6 0 10 -4 10 -10z m-841 -44 c-9 -8 -10 -7 -5 7 3 10 7 24 7 30 1 7
3 4 6 -7 3 -10 -1 -23 -8 -30z m261 29 c0 -8 -4 -15 -10 -15 -5 0 -7 7 -4 15
4 8 8 15 10 15 2 0 4 -7 4 -15z m46 -57 c1 -14 5 -31 9 -39 6 -11 4 -10 -8 1
-22 21 -35 74 -16 68 8 -3 14 -16 15 -30z m-46 -16 c0 -7 -4 -10 -10 -7 -5 3
-10 16 -10 28 0 18 2 19 10 7 5 -8 10 -21 10 -28z m1340 4 c0 -14 -4 -28 -10
-31 -6 -4 -10 7 -10 24 0 17 5 31 10 31 6 0 10 -11 10 -24z m-1136 -74 l-15
-27 5 34 c4 18 6 41 7 50 0 10 3 8 10 -7 6 -17 5 -31 -7 -50z m-537 21 c7 -15
11 -28 9 -31 -6 -5 -46 36 -46 48 0 20 25 9 37 -17z m731 10 c2 -7 -3 -13 -12
-13 -9 0 -18 -11 -22 -25 -3 -14 -10 -25 -15 -25 -12 0 -11 27 1 35 6 3 10 15
10 26 0 22 30 23 38 2z m-321 -70 c-3 -10 -5 -2 -5 17 0 19 2 27 5 18 2 -10 2
-26 0 -35z m-235 15 c-7 -7 -12 -8 -12 -2 0 14 12 26 19 19 2 -3 -1 -11 -7
-17z m65 -10 c-3 -8 -6 -5 -6 6 -1 11 2 17 5 13 3 -3 4 -12 1 -19z m327 -3
c-4 -8 -10 -12 -15 -9 -11 6 -2 24 11 24 5 0 7 -7 4 -15z m-197 -77 c-3 -7 -5
-2 -5 12 0 14 2 19 5 13 2 -7 2 -19 0 -25z m1 -95 c-1 -41 -4 -59 -9 -47 -12
29 -11 126 1 119 5 -3 9 -36 8 -72z m-148 47 c11 -20 6 -40 -8 -40 -10 0 -31
48 -24 55 10 10 21 5 32 -15z m385 -19 c3 -5 1 -12 -5 -16 -5 -3 -10 1 -10 9
0 18 6 21 15 7z m175 -13 c0 -19 -2 -20 -10 -8 -13 19 -13 30 0 30 6 0 10 -10
10 -22z m67 -50 c-3 -7 -5 -2 -5 12 0 14 2 19 5 13 2 -7 2 -19 0 -25z m-287
-30 c0 -5 -4 -8 -10 -8 -5 0 -10 10 -10 23 0 18 2 19 10 7 5 -8 10 -18 10 -22z
m57 10 c-3 -8 -6 -5 -6 6 -1 11 2 17 5 13 3 -3 4 -12 1 -19z m190 -60 c-3 -8
-6 -5 -6 6 -1 11 2 17 5 13 3 -3 4 -12 1 -19z m57 7 c3 -8 1 -15 -4 -15 -6 0
-10 7 -10 15 0 8 2 15 4 15 2 0 6 -7 10 -15z m1419 -113 c-5 -10 -25 -18 -43
-20 -27 -3 -32 -1 -23 10 5 7 13 21 16 30 4 13 2 16 -11 11 -14 -5 -15 -3 -5
7 9 10 15 10 26 1 12 -9 16 -8 22 6 6 16 8 16 18 -5 8 -17 8 -29 0 -40z m-117
-48 c-4 -9 -9 -15 -11 -12 -3 3 -3 13 1 22 4 9 9 15 11 12 3 -3 3 -13 -1 -22z
m-1476 6 c0 -5 -4 -10 -10 -10 -5 0 -10 5 -10 10 0 6 5 10 10 10 6 0 10 -4 10
-10z m1387 -19 c2 -21 -22 -47 -30 -34 -6 11 10 53 21 53 4 0 8 -9 9 -19z m38
-11 c-3 -5 -10 -10 -16 -10 -5 0 -9 5 -9 10 0 6 7 10 16 10 8 0 12 -4 9 -10z
m-85 -30 c0 -5 -2 -10 -4 -10 -3 0 -8 5 -11 10 -3 6 -1 10 4 10 6 0 11 -4 11
-10z m-60 -9 c0 -6 -4 -13 -10 -16 -5 -3 -10 1 -10 9 0 9 5 16 10 16 6 0 10
-4 10 -9z m-392 -149 c2 -7 -3 -12 -12 -12 -9 0 -16 7 -16 16 0 17 22 14 28
-4z m-208 -162 c0 -5 -12 -10 -27 -9 -25 0 -26 1 -8 9 27 12 35 12 35 0z
m1744 -262 c3 -29 5 -82 5 -118 -1 -65 -1 -64 -15 35 -16 122 -16 135 -5 135
4 0 11 -24 15 -52z m-31 -495 c-7 -18 -13 -54 -14 -80 l0 -48 -18 52 c-20 58
-39 86 -52 77 -10 -6 -11 -1 -4 18 3 8 23 13 54 13 l48 0 -14 -32z m-473 -64
c0 -5 -7 -9 -15 -9 -9 0 -12 6 -9 15 6 15 24 11 24 -6z m-150 -93 c0 -11 -19
-15 -25 -6 -3 5 1 10 9 10 9 0 16 -2 16 -4z"/>
<path d="M2240 6760 c0 -5 5 -10 11 -10 5 0 7 5 4 10 -3 6 -8 10 -11 10 -2 0
-4 -4 -4 -10z"/>
<path d="M3078 6699 c-8 -5 8 -9 40 -9 32 0 51 4 47 10 -7 11 -68 10 -87 -1z"/>
<path d="M3680 6690 c0 -24 -25 -27 -38 -4 -7 12 -14 14 -27 7 -10 -6 -34 -7
-59 -2 -49 9 -86 2 -86 -17 0 -18 -11 -18 -82 2 -55 16 -60 16 -77 0 -11 -10
-22 -13 -25 -8 -8 14 -108 21 -130 9 -11 -5 -45 -11 -75 -12 -72 -4 -99 -13
-106 -36 -9 -29 -27 -23 -23 8 2 17 12 32 26 39 13 7 19 15 14 18 -6 3 -27 -4
-48 -16 -20 -12 -55 -24 -78 -26 -22 -2 -48 -8 -58 -13 -10 -6 -23 -7 -29 -4
-18 12 -56 -4 -62 -25 -3 -11 -13 -23 -24 -26 -10 -4 -25 -13 -34 -20 -8 -8
-29 -15 -47 -17 -17 -2 -37 -9 -45 -16 -16 -13 -31 -54 -16 -45 5 3 9 11 9 19
0 18 17 28 31 20 16 -10 -28 -53 -62 -60 -16 -4 -31 -15 -34 -26 -8 -24 3 -39
14 -21 5 8 17 11 33 7 19 -5 29 -2 35 10 6 9 14 15 19 13 4 -1 19 13 32 32 13
19 30 39 39 44 13 7 15 4 9 -20 l-6 -29 26 30 c20 22 37 30 65 31 22 1 39 -1
39 -4 0 -4 -35 -22 -78 -41 -42 -18 -96 -51 -119 -72 -46 -42 -45 -43 34 -54
46 -6 69 11 28 21 -14 3 -25 10 -25 15 0 14 39 31 63 26 22 -3 22 -4 -3 -14
-22 -10 -23 -12 -7 -18 10 -4 23 -3 30 4 6 6 17 11 25 11 12 0 12 -3 2 -15
-10 -13 -9 -15 11 -15 13 0 77 -2 141 -4 69 -2 120 0 124 5 7 12 108 3 144
-13 14 -5 39 -17 57 -25 18 -9 38 -13 46 -10 8 3 23 0 33 -7 11 -7 33 -12 51
-11 20 1 34 -4 38 -13 4 -11 -1 -13 -20 -10 -29 6 -32 -6 -8 -30 12 -13 17
-14 21 -4 3 9 15 11 38 6 30 -5 34 -4 34 15 0 27 34 28 57 1 19 -21 43 -27 43
-9 0 6 11 9 24 7 14 -2 38 7 55 20 25 19 34 20 50 10 15 -9 24 -8 45 6 28 18
46 14 46 -10 0 -24 28 -16 52 16 26 35 42 39 32 8 -6 -20 -5 -21 9 -9 9 7 22
32 29 55 l12 41 4 -32 c2 -18 -2 -41 -7 -52 -13 -23 -14 -51 -3 -51 10 0 50
136 51 174 1 16 -4 35 -10 42 -5 7 -13 34 -16 61 -6 62 -11 65 -19 14 -6 -41
-34 -60 -34 -23 -1 23 -54 125 -68 130 -15 5 -15 -13 -2 -38 6 -11 6 -21 1
-25 -5 -3 -12 4 -16 15 -3 11 -11 20 -16 20 -5 0 -9 7 -9 15 0 9 -9 15 -24 15
-13 0 -29 7 -36 15 -17 21 -30 19 -30 -5z m-54 -41 c19 -22 19 -22 -3 -10 -24
12 -39 31 -25 31 5 0 17 -10 28 -21z m-871 -49 c-3 -5 -11 -10 -16 -10 -6 0
-7 5 -4 10 3 6 11 10 16 10 6 0 7 -4 4 -10z m105 -10 c0 -5 -4 -10 -10 -10 -5
0 -10 5 -10 10 0 6 5 10 10 10 6 0 10 -4 10 -10z"/>
<path d="M2760 6679 c0 -5 5 -7 10 -4 6 3 10 8 10 11 0 2 -4 4 -10 4 -5 0 -10
-5 -10 -11z"/>
<path d="M2670 6625 c-7 -8 -8 -15 -2 -15 5 0 15 7 22 15 7 8 8 15 2 15 -5 0
-15 -7 -22 -15z"/>
<path d="M5380 6622 c0 -12 24 -22 56 -22 16 0 23 -4 18 -11 -3 -6 -18 -9 -31
-6 -16 3 -32 -2 -44 -14 -15 -15 -24 -17 -46 -8 -15 5 -37 8 -50 4 -23 -5
-103 21 -115 39 -4 6 -15 6 -32 -2 -14 -6 -32 -9 -40 -6 -8 3 -28 -2 -45 -10
-34 -18 -65 -21 -56 -6 6 10 -26 0 -63 -19 -9 -4 -30 -11 -47 -15 -29 -7 -29
-7 -10 8 15 12 16 15 5 16 -19 0 -59 -27 -82 -56 -10 -12 -31 -27 -47 -34 -16
-6 -32 -18 -35 -26 -3 -9 -1 -12 5 -9 21 14 -4 -50 -27 -68 -29 -23 -31 -37
-5 -37 17 0 19 -5 14 -37 -3 -21 -10 -46 -14 -55 -13 -25 6 -31 41 -13 29 15
30 15 30 -5 0 -27 16 -25 31 3 6 12 13 23 14 25 4 4 59 -51 61 -60 1 -5 2 -11
3 -14 0 -4 13 2 28 11 17 12 28 14 31 7 2 -6 10 -8 19 -5 11 4 14 0 11 -18 -2
-19 2 -25 22 -28 14 -1 28 -7 31 -12 7 -11 39 -1 39 12 0 5 8 9 17 9 15 0 15
-1 -2 -13 -10 -8 -15 -19 -11 -25 9 -15 39 -15 54 0 9 9 15 9 24 0 15 -15 32
-16 22 -1 -4 7 3 10 20 7 20 -2 33 4 46 22 14 18 20 21 20 9 0 -35 111 -7 188
47 15 12 22 13 22 4 0 -8 8 -10 24 -6 13 3 26 1 28 -4 2 -7 13 -7 35 0 25 9
36 8 55 -3 13 -8 40 -18 61 -21 34 -6 37 -9 25 -23 -11 -14 -11 -16 4 -10 27
10 190 -12 215 -29 13 -8 23 -12 23 -8 0 4 6 2 13 -4 7 -6 32 -13 55 -14 23
-2 42 -6 42 -10 0 -5 10 -8 23 -7 12 0 16 3 10 6 -15 5 -18 53 -4 53 12 0 21
-63 10 -75 -12 -16 -4 -68 12 -74 8 -2 17 -9 21 -15 4 -6 8 1 8 17 0 15 -5 27
-11 27 -8 0 -8 4 0 14 9 11 8 30 -4 82 -9 38 -21 77 -26 86 -5 10 -9 23 -9 29
0 11 -24 42 -86 112 -16 18 -23 35 -19 47 4 11 -2 26 -13 37 -11 10 -23 28
-26 40 -4 11 -23 33 -42 48 -33 25 -36 26 -48 10 -11 -16 -14 -16 -19 -2 -4
12 -15 14 -47 10 -40 -6 -42 -5 -35 16 8 25 -3 28 -19 5 -11 -15 -15 -15 -50
0 -21 9 -56 16 -77 16 -29 0 -39 5 -44 20 -7 21 -25 28 -25 10 0 -16 -18 -12
-48 10 -32 23 -82 37 -82 22z m510 -162 c0 -5 -9 -10 -20 -10 -11 0 -20 5 -20
10 0 6 9 10 20 10 11 0 20 -4 20 -10z m10 -160 c0 -5 -2 -10 -4 -10 -3 0 -8 5
-11 10 -3 6 -1 10 4 10 6 0 11 -4 11 -10z"/>
<path d="M5665 6570 c-4 -6 3 -10 14 -10 25 0 27 6 6 13 -8 4 -17 2 -20 -3z"/>
<path d="M2510 6370 c0 -5 -12 -21 -26 -35 -33 -33 -26 -40 21 -21 21 9 49 16
64 16 l26 1 -28 24 c-28 25 -57 33 -57 15z"/>
<path d="M3420 6233 c8 -3 18 -11 22 -17 9 -14 22 -1 13 13 -3 6 -16 11 -28
10 -15 0 -17 -2 -7 -6z"/>
<path d="M3508 6128 c-5 -11 -18 -18 -33 -18 -14 0 -25 -5 -25 -11 0 -8 11 -9
32 -5 38 8 41 10 36 33 -3 17 -4 17 -10 1z"/>
<path d="M4970 6099 c0 -5 5 -7 10 -4 6 3 10 8 10 11 0 2 -4 4 -10 4 -5 0 -10
-5 -10 -11z"/>
<path d="M3549 6091 c-2 -6 -14 -12 -26 -14 -12 -2 -30 -10 -40 -20 -12 -11
-23 -13 -33 -7 -8 5 -33 6 -56 3 -23 -3 -79 0 -125 6 -62 9 -115 10 -205 2
-174 -15 -186 -26 -30 -27 118 -1 139 -4 180 -24 51 -26 57 -34 24 -36 -62 -4
-152 -16 -173 -24 -13 -5 -25 -6 -28 -3 -7 6 -109 -22 -152 -42 -16 -7 -54
-23 -83 -35 -29 -11 -74 -34 -101 -49 -26 -16 -68 -38 -93 -49 -33 -14 -47
-27 -50 -45 -4 -19 -1 -24 9 -20 14 5 92 -15 103 -27 3 -3 14 -10 25 -16 11
-6 24 -20 30 -31 12 -29 84 -38 77 -11 -3 13 2 18 16 18 27 0 37 -17 21 -36
-16 -20 -1 -30 56 -40 22 -3 55 -15 74 -27 20 -12 53 -21 85 -22 28 0 59 -5
70 -10 12 -5 21 -4 26 5 9 15 79 19 80 5 0 -5 -15 -13 -32 -18 -71 -16 -138
-42 -142 -54 -3 -7 -1 -13 4 -13 6 0 10 -7 10 -15 0 -8 8 -15 17 -15 44 0 199
24 210 32 7 5 22 7 34 3 12 -4 31 -3 43 3 11 6 41 18 65 27 24 9 64 30 88 46
43 30 44 32 27 50 -9 11 -14 22 -11 26 8 8 46 29 74 42 12 6 30 22 39 36 16
24 16 29 0 68 -15 40 -15 42 3 57 20 16 36 63 31 95 -4 31 -7 59 -9 78 -1 12
-10 17 -31 17 -16 0 -29 3 -29 8 4 21 -4 31 -28 40 l-28 10 25 1 c36 2 57 16
35 25 -9 3 -25 6 -36 6 -10 0 -18 5 -16 11 3 15 -20 23 -24 10z m-619 -256 c0
-9 9 -15 24 -15 20 0 24 -6 30 -40 8 -50 -1 -90 -19 -84 -19 8 -25 -32 -8 -55
17 -26 8 -27 -57 -7 -102 31 -170 74 -170 107 0 27 87 89 124 89 17 0 38 5 46
10 21 14 30 12 30 -5z m360 -40 c-7 -8 -16 -15 -21 -15 -5 0 -9 7 -9 15 0 9 9
15 21 15 18 0 19 -2 9 -15z m129 -30 c17 -20 31 -40 31 -46 0 -25 -33 -69 -56
-75 -33 -8 -35 -5 -23 41 6 21 8 56 5 77 -8 47 3 48 43 3z m-379 -41 c0 -26
-17 -33 -26 -9 -8 20 3 48 16 40 5 -3 10 -17 10 -31z m-300 -64 c0 -5 -4 -10
-10 -10 -5 0 -10 5 -10 10 0 6 5 10 10 10 6 0 10 -4 10 -10z m295 0 c3 -5 1
-10 -4 -10 -6 0 -11 5 -11 10 0 6 2 10 4 10 3 0 8 -4 11 -10z m-101 -61 c30
-8 41 -8 47 2 5 9 11 10 21 2 7 -6 26 -13 42 -15 16 -1 31 -8 33 -15 3 -9 -11
-11 -49 -8 -29 2 -55 5 -58 5 -3 1 -12 2 -22 1 -9 -1 -19 3 -23 9 -3 5 -15 10
-26 10 -10 0 -19 5 -19 10 0 13 6 12 54 -1z m220 -40 c-7 -11 -54 -12 -54 -1
0 15 10 19 35 14 14 -2 22 -8 19 -13z m50 6 c-7 -17 -20 -20 -28 -6 -7 10 3
21 20 21 8 0 11 -6 8 -15z"/>
<path d="M4860 6059 c0 -15 -5 -19 -15 -15 -8 3 -27 1 -41 -4 -19 -8 -25 -16
-21 -30 4 -16 0 -20 -19 -20 -14 0 -27 -7 -31 -17 -14 -39 -47 -73 -70 -73
-30 0 -29 -14 2 -28 19 -9 25 -19 25 -42 0 -17 5 -40 10 -51 6 -10 7 -19 3
-19 -4 0 -20 -10 -35 -23 -20 -17 -27 -32 -26 -57 1 -28 14 -46 78 -109 136
-134 217 -189 261 -178 10 3 23 -1 30 -9 6 -8 21 -14 33 -14 12 0 26 -4 31 -9
11 -9 58 -21 180 -47 83 -18 327 -25 342 -11 11 12 -17 27 -50 27 -15 0 -38 6
-50 14 -20 13 -66 24 -127 32 -13 1 -26 8 -28 13 -2 6 -18 11 -35 12 -18 1
-43 5 -57 9 -25 8 -25 8 5 10 17 1 34 2 39 1 27 -6 117 -4 123 2 3 4 21 7 39
7 17 0 45 7 60 15 16 8 37 15 47 15 10 0 27 5 37 10 11 6 38 12 61 14 23 3 46
9 52 15 6 6 24 11 41 11 29 0 29 1 10 16 -19 15 -19 16 1 9 36 -12 84 -18 99
-12 20 8 10 34 -16 43 -10 3 -43 29 -71 58 -29 28 -74 66 -101 84 -49 33 -140
82 -153 83 -5 0 -37 9 -72 19 -52 17 -87 20 -196 17 -80 -1 -131 1 -128 7 4 5
-6 6 -23 1 -44 -12 -67 -11 -71 3 -3 6 0 12 7 12 6 0 8 -4 5 -10 -7 -12 5 -13
23 -2 7 5 10 16 7 24 -21 55 383 52 512 -3 50 -21 62 -24 47 -9 -18 18 -150
62 -229 76 -44 8 -134 17 -199 21 -103 5 -116 8 -100 20 17 12 16 13 -7 13
-13 0 -40 -5 -59 -10 -27 -8 -37 -7 -45 3 -6 8 -20 17 -33 21 -17 6 -21 13
-17 27 9 26 -3 43 -20 29 -16 -13 -45 -3 -45 16 0 8 -4 14 -10 14 -5 0 -10 -9
-10 -21z m150 -244 c-7 -8 -16 -12 -21 -9 -13 8 -1 24 18 24 13 0 13 -3 3 -15z
m55 -181 c0 -86 -12 -94 -67 -45 -29 26 -31 31 -22 61 12 42 33 52 27 13 l-5
-28 21 25 c11 14 23 33 27 43 11 34 19 6 19 -69z m567 9 c34 -32 26 -45 -47
-79 -64 -31 -95 -32 -88 -3 5 18 2 19 -23 13 -16 -4 -37 -11 -47 -16 -10 -5
-21 -7 -25 -4 -7 8 24 40 41 42 6 0 22 2 35 2 15 2 22 8 22 23 0 11 5 30 11
41 9 17 17 19 52 14 25 -4 53 -18 69 -33z m-542 -163 c0 -5 -4 -10 -9 -10 -6
0 -13 5 -16 10 -3 6 1 10 9 10 9 0 16 -4 16 -10z m90 -36 c21 -5 27 -9 19 -15
-7 -4 -18 -4 -24 0 -5 5 -19 11 -30 14 -30 7 -2 8 35 1z"/>
<path d="M5955 6070 c3 -5 8 -10 11 -10 2 0 4 5 4 10 0 6 -5 10 -11 10 -5 0
-7 -4 -4 -10z"/>
<path d="M4960 6030 c0 -5 5 -10 10 -10 6 0 10 5 10 10 0 6 -4 10 -10 10 -5 0
-10 -4 -10 -10z"/>
<path d="M5975 6030 c-8 -13 20 -24 40 -16 8 3 15 10 15 16 0 13 -47 13 -55 0z"/>
<path d="M3270 4260 c0 -5 5 -10 10 -10 6 0 10 5 10 10 0 6 -4 10 -10 10 -5 0
-10 -4 -10 -10z"/>
<path d="M1970 4079 c0 -5 5 -7 10 -4 6 3 10 8 10 11 0 2 -4 4 -10 4 -5 0 -10
-5 -10 -11z"/>
<path d="M2821 3993 c-31 -38 -40 -63 -21 -63 6 0 10 5 10 10 0 6 14 24 31 41
21 20 28 34 21 41 -6 6 -20 -4 -41 -29z"/>
<path d="M2890 3970 c-8 -5 -12 -11 -9 -14 2 -3 11 -1 19 4 8 5 12 11 9 14 -2
3 -11 1 -19 -4z"/>
<path d="M2072 3910 c0 -14 2 -19 5 -12 2 6 2 18 0 25 -3 6 -5 1 -5 -13z"/>
<path d="M2823 3901 c-45 -38 -41 -45 7 -14 22 15 40 30 40 35 0 14 -14 8 -47
-21z"/>
<path d="M2111 3864 c0 -11 3 -14 6 -6 3 7 2 16 -1 19 -3 4 -6 -2 -5 -13z"/>
<path d="M2804 3849 c-3 -6 -1 -16 5 -22 9 -9 14 -8 21 3 9 15 4 30 -10 30 -5
0 -12 -5 -16 -11z"/>
<path d="M2201 3836 c-13 -15 -2 -74 19 -106 8 -13 11 -12 24 5 22 28 22 52 0
34 -22 -18 -36 5 -30 49 5 36 4 38 -13 18z"/>
<path d="M2157 3834 c-10 -10 -9 -54 2 -54 12 0 22 43 13 52 -5 5 -11 5 -15 2z"/>
<path d="M2011 3788 c-1 -21 4 -38 9 -38 11 0 11 14 0 50 -7 22 -8 21 -9 -12z"/>
<path d="M2770 3809 c0 -5 5 -7 10 -4 6 3 10 8 10 11 0 2 -4 4 -10 4 -5 0 -10
-5 -10 -11z"/>
<path d="M2752 3755 c-6 -14 -8 -25 -3 -25 4 0 13 11 19 25 6 14 8 25 3 25 -4
0 -13 -11 -19 -25z"/>
<path d="M2286 3718 c-3 -13 -1 -27 4 -32 7 -7 10 1 10 22 0 37 -5 41 -14 10z"/>
<path d="M2231 3701 c-17 -11 -5 -51 15 -51 15 0 17 14 6 42 -5 11 -12 14 -21
9z"/>
<path d="M5480 3646 c0 -2 8 -10 18 -17 15 -13 16 -12 3 4 -13 16 -21 21 -21
13z"/>
<path d="M2246 3616 c-4 -15 0 -41 9 -62 8 -20 15 -45 15 -55 0 -18 17 -35 27
-26 2 3 -2 29 -10 59 -8 29 -14 64 -14 77 3 33 -19 38 -27 7z"/>
<path d="M2138 3604 c-3 -5 3 -18 13 -28 22 -22 26 -9 6 19 -8 10 -16 14 -19
9z"/>
<path d="M2200 3570 c0 -25 -3 -56 -6 -70 -6 -24 -6 -25 9 -5 18 22 22 82 7
105 -7 11 -10 3 -10 -30z"/>
<path d="M2390 3561 c0 -5 5 -13 10 -16 6 -3 10 -2 10 4 0 5 -4 13 -10 16 -5
3 -10 2 -10 -4z"/>
<path d="M5700 3560 c0 -5 5 -10 11 -10 5 0 7 5 4 10 -3 6 -8 10 -11 10 -2 0
-4 -4 -4 -10z"/>
<path d="M2352 3500 c0 -19 2 -27 5 -17 2 9 2 25 0 35 -3 9 -5 1 -5 -18z"/>
<path d="M2386 3504 c-3 -9 -2 -23 4 -32 7 -14 9 -10 10 16 0 35 -5 41 -14 16z"/>
<path d="M2117 3493 c-4 -6 -5 -17 -3 -25 2 -7 7 -26 11 -42 4 -21 9 -26 17
-18 9 9 9 17 0 34 -6 13 -12 32 -14 43 -2 13 -6 16 -11 8z"/>
<path d="M5481 3484 c0 -11 3 -14 6 -6 3 7 2 16 -1 19 -3 4 -6 -2 -5 -13z"/>
<path d="M5437 3463 c-2 -4 -1 -17 3 -28 7 -19 8 -19 15 -2 8 18 -9 46 -18 30z"/>
<path d="M2250 3453 c1 -5 11 -28 23 -53 18 -37 27 -45 52 -47 17 -1 22 1 13
3 -9 3 -20 18 -23 35 -4 16 -10 29 -15 29 -4 0 -10 9 -13 20 -5 18 -38 30 -37
13z"/>
<path d="M2211 3414 c14 -52 29 -66 29 -28 0 18 -8 38 -19 49 -20 17 -20 16
-10 -21z"/>
<path d="M2357 3434 c-7 -13 4 -74 14 -74 5 0 9 12 9 28 0 30 -15 59 -23 46z"/>
<path d="M2081 3413 c0 -4 4 -17 9 -28 8 -19 9 -19 9 2 1 12 -3 25 -9 28 -5 3
-10 3 -9 -2z"/>
<path d="M2159 3395 c-12 -45 9 -125 32 -125 7 0 6 8 -3 23 -9 14 -12 34 -8
59 5 26 3 39 -7 42 -7 3 -14 3 -14 1z"/>
<path d="M2384 3310 c-4 -27 -10 -50 -15 -50 -5 0 -9 -9 -9 -19 0 -11 -6 -21
-12 -23 -9 -3 -7 -10 7 -24 15 -15 18 -16 13 -3 -8 19 19 62 33 54 5 -4 9 10
9 30 0 29 3 36 15 31 11 -4 15 1 15 19 0 18 -4 23 -15 19 -8 -4 -15 -1 -15 5
0 6 -4 11 -10 11 -5 0 -12 -22 -16 -50z"/>
<path d="M2290 3323 c0 -16 25 -73 32 -73 11 0 10 38 -2 61 -10 18 -30 26 -30
12z"/>
<path d="M2210 3313 c0 -4 5 -15 10 -23 8 -13 10 -13 10 2 0 9 -4 20 -10 23
-5 3 -10 3 -10 -2z"/>
<path d="M2830 3304 c-19 -6 -52 -62 -40 -69 5 -3 11 -19 15 -35 4 -17 11 -30
16 -30 13 0 11 24 -2 37 -9 9 -9 20 1 42 7 17 16 31 20 31 4 0 10 7 14 15 5
15 3 16 -24 9z"/>
<path d="M2925 3290 c-3 -5 -1 -10 4 -10 6 0 11 5 11 10 0 6 -2 10 -4 10 -3 0
-8 -4 -11 -10z"/>
<path d="M2437 3253 c-4 -23 17 -88 34 -103 3 -3 9 -14 13 -25 5 -12 10 -15
13 -8 2 7 -1 21 -7 33 -6 11 -8 25 -5 30 6 9 -31 100 -40 100 -1 0 -5 -12 -8
-27z"/>
<path d="M2300 3215 c0 -8 9 -19 20 -25 23 -12 25 -7 10 21 -13 22 -30 25 -30
4z"/>
<path d="M2402 3190 c-10 -16 -10 -25 0 -43 11 -21 12 -21 19 13 9 42 -1 58
-19 30z"/>
<path d="M2520 3186 c0 -8 5 -18 10 -21 6 -3 10 -15 10 -26 0 -10 -4 -19 -10
-19 -14 0 -12 -28 6 -75 9 -22 16 -51 16 -65 0 -15 2 -18 5 -8 2 10 10 15 19
11 10 -4 14 3 14 26 0 29 -8 36 -35 32 -5 -1 -2 5 9 13 19 16 20 13 -10 91 -9
24 -11 32 -13 45 -2 16 -21 12 -21 -4z"/>
<path d="M3717 3143 c-3 -16 -5 -39 -5 -53 l-1 -25 13 23 c7 13 10 36 8 53 -5
36 -9 37 -15 2z"/>
<path d="M2290 3132 c0 -31 27 -75 40 -67 5 3 12 -9 15 -27 4 -18 15 -48 24
-66 15 -29 19 -31 30 -19 13 17 4 41 -33 84 -10 12 -15 26 -12 31 3 6 0 12 -8
15 -8 3 -19 22 -26 41 -14 43 -30 47 -30 8z"/>
<path d="M2330 3137 c0 -8 7 -17 15 -21 8 -3 15 -2 15 3 0 5 -7 14 -15 21 -12
10 -15 10 -15 -3z"/>
<path d="M2434 3107 c-13 -15 -7 -74 9 -84 6 -4 7 6 3 30 -4 21 -2 38 4 42 12
7 14 25 3 25 -5 -1 -13 -6 -19 -13z"/>
<path d="M2480 3083 c0 -5 5 -15 10 -23 8 -12 10 -11 10 8 0 12 -4 22 -10 22
-5 0 -10 -3 -10 -7z"/>
<path d="M2390 3068 c0 -9 5 -20 10 -23 13 -8 13 5 0 25 -8 13 -10 13 -10 -2z"/>
<path d="M2877 3053 c-15 -14 -6 -31 13 -26 11 3 20 12 20 19 0 14 -22 19 -33
7z"/>
<path d="M2616 3025 c4 -8 8 -15 10 -15 2 0 4 7 4 15 0 8 -4 15 -10 15 -5 0
-7 -7 -4 -15z"/>
<path d="M5105 3010 c3 -5 8 -10 11 -10 2 0 4 5 4 10 0 6 -5 10 -11 10 -5 0
-7 -4 -4 -10z"/>
<path d="M2618 2995 c-9 -15 -8 -105 2 -105 4 0 10 6 12 13 6 19 -6 103 -14
92z"/>
<path d="M2905 2950 c-8 -13 4 -32 16 -25 12 8 12 35 0 35 -6 0 -13 -4 -16
-10z"/>
<path d="M2570 2920 c0 -5 5 -10 10 -10 6 0 10 5 10 10 0 6 -4 10 -10 10 -5 0
-10 -4 -10 -10z"/>
<path d="M3035 2860 c-3 -5 1 -10 9 -10 9 0 16 5 16 10 0 6 -4 10 -9 10 -6 0
-13 -4 -16 -10z"/>
<path d="M3160 2839 c0 -5 5 -7 10 -4 6 3 10 8 10 11 0 2 -4 4 -10 4 -5 0 -10
-5 -10 -11z"/>
<path d="M3280 2835 c0 -8 5 -15 10 -15 6 0 10 7 10 15 0 8 -4 15 -10 15 -5 0
-10 -7 -10 -15z"/>
<path d="M4620 2785 c7 -8 9 -15 5 -15 -4 0 -2 -6 5 -14 17 -22 38 -9 32 20
-3 18 -11 24 -29 24 -22 0 -24 -2 -13 -15z"/>
<path d="M2963 2723 c-18 -7 -16 -33 1 -33 9 0 14 9 13 20 -1 11 -1 20 -2 19
0 0 -6 -3 -12 -6z"/>
<path d="M3108 2696 c-9 -13 -19 -40 -22 -62 -5 -30 -4 -33 3 -13 5 14 16 38
26 52 21 33 16 53 -7 23z"/>
<path d="M3380 2680 c0 -5 5 -10 10 -10 6 0 10 5 10 10 0 6 -4 10 -10 10 -5 0
-10 -4 -10 -10z"/>
<path d="M3763 2645 c-3 -9 -3 -18 -1 -21 3 -3 8 4 11 16 6 23 -1 27 -10 5z"/>
<path d="M3806 2651 c-4 -7 -5 -15 -2 -18 9 -9 19 4 14 18 -4 11 -6 11 -12 0z"/>
<path d="M3192 2451 c4 -13 18 -16 19 -4 0 4 -5 9 -11 12 -7 2 -11 -2 -8 -8z"/>
<path d="M3186 2404 c-4 -9 -4 -19 -1 -22 2 -3 7 3 11 12 4 9 4 19 1 22 -2 3
-7 -3 -11 -12z"/>
<path d="M3480 3970 c-13 -8 -12 -10 3 -10 9 0 17 5 17 10 0 12 -1 12 -20 0z"/>
<path d="M3420 3935 c-10 -13 -9 -15 8 -15 15 0 20 5 16 15 -4 8 -7 15 -9 15
-1 0 -8 -7 -15 -15z"/>
<path d="M3380 3884 c0 -8 5 -12 10 -9 6 3 10 10 10 16 0 5 -4 9 -10 9 -5 0
-10 -7 -10 -16z"/>
<path d="M4333 3813 c9 -2 23 -2 30 0 6 3 -1 5 -18 5 -16 0 -22 -2 -12 -5z"/>
<path d="M4400 3810 c0 -5 5 -10 10 -10 6 0 10 5 10 10 0 6 -4 10 -10 10 -5 0
-10 -4 -10 -10z"/>
<path d="M3488 3774 c-8 -8 3 -44 13 -44 5 0 9 11 9 25 0 24 -10 32 -22 19z"/>
<path d="M4391 3764 c0 -11 3 -14 6 -6 3 7 2 16 -1 19 -3 4 -6 -2 -5 -13z"/>
<path d="M4470 3770 c0 -6 11 -8 28 -4 39 10 40 14 4 14 -18 0 -32 -5 -32 -10z"/>
<path d="M4320 3750 c0 -5 5 -10 10 -10 6 0 10 5 10 10 0 6 -4 10 -10 10 -5 0
-10 -4 -10 -10z"/>
<path d="M4550 3720 c0 -15 26 -23 46 -16 20 8 17 11 -18 20 -17 4 -28 2 -28
-4z"/>
<path d="M3930 3686 c0 -2 7 -7 16 -10 8 -3 12 -2 9 4 -6 10 -25 14 -25 6z"/>
<path d="M1927 3753 c-4 -3 -7 -11 -7 -17 0 -6 5 -5 12 2 6 6 9 14 7 17 -3 3
-9 2 -12 -2z"/>
<path d="M1950 3728 c0 -7 5 -20 10 -28 8 -12 10 -9 10 13 0 15 -4 27 -10 27
-5 0 -10 -6 -10 -12z"/>
<path d="M2396 2732 c-3 -6 -1 -14 5 -17 14 -9 20 -2 10 14 -6 8 -11 9 -15 3z"/>
<path d="M2665 2440 c-3 -5 -1 -10 4 -10 6 0 11 5 11 10 0 6 -2 10 -4 10 -3 0
-8 -4 -11 -10z"/>
<path d="M5500 2280 c0 -5 5 -10 10 -10 6 0 10 5 10 10 0 6 -4 10 -10 10 -5 0
-10 -4 -10 -10z"/>
<path d="M5369 2084 c-9 -11 -10 -20 -2 -32 17 -28 38 -20 39 16 1 35 -15 42
-37 16z"/>
<path d="M5180 1882 c0 -5 7 -13 16 -16 10 -4 14 -1 12 6 -5 15 -28 23 -28 10z"/>
<path d="M3710 1524 c0 -8 5 -12 10 -9 6 4 8 11 5 16 -9 14 -15 11 -15 -7z"/>
<path d="M3820 1526 c0 -2 8 -10 18 -17 15 -13 16 -12 3 4 -13 16 -21 21 -21
13z"/>
<path d="M4762 1378 c3 -7 13 -15 23 -17 17 -3 17 -2 3 13 -20 19 -31 21 -26
4z"/>
<path d="M4367 1264 c-13 -13 -7 -24 14 -24 11 0 19 5 17 12 -5 14 -22 21 -31
12z"/>
<path d="M4426 1263 c-11 -11 -6 -23 9 -23 8 0 15 4 15 9 0 13 -16 22 -24 14z"/>
<path d="M4530 1230 c0 -5 4 -10 9 -10 6 0 13 5 16 10 3 6 -1 10 -9 10 -9 0
-16 -4 -16 -10z"/>
<path d="M4432 1221 c-18 -3 -33 -9 -32 -13 0 -5 0 -17 0 -29 0 -11 4 -18 10
-14 5 3 6 13 3 21 -5 13 1 15 28 12 25 -2 34 1 37 15 2 9 0 16 -5 16 -4 -1
-23 -4 -41 -8z"/>
<path d="M5070 146 c-6 -9 -10 -21 -8 -28 3 -8 9 -4 17 10 15 28 9 39 -9 18z"/>
<path d="M5116 123 c-6 -14 -5 -15 5 -6 7 7 10 15 7 18 -3 3 -9 -2 -12 -12z"/>
<path d="M5155 20 c-8 -13 -1 -24 14 -19 6 3 7 10 2 18 -6 10 -10 10 -16 1z"/>
</g>
</svg>
